<svg width="1600" height="900" viewBox="0 0 1600 900" fill="none" xmlns="http://www.w3.org/2000/svg">
<rect width="1600" height="900" fill="#071622"/>
<path d="M0 520L250 470L430 520L620 455L820 520L1040 480L1260 535L1600 500V900H0V520Z" fill="#1C3E5C"/>
<path d="M0 650L260 610L470 660L690 600L930 680L1160 620L1600 660V900H0V650Z" fill="#245B6C"/>
<circle cx="1240" cy="190" r="92" fill="#F6D889" fill-opacity="0.72"/>
<path d="M800 210L860 320H740L800 210Z" fill="#A8F0E8" fill-opacity="0.9"/>
<path d="M800 320V740" stroke="#F6D889" stroke-width="16" stroke-linecap="round"/>
<path d="M800 740L735 820H865L800 740Z" fill="#0B1626"/>
</svg>
